# xmcd
#
# Track frame offsets: 
#        150
#        12382
#        22364
#        36823
#        48175
#        61978
#        72938
#        86852
#        99013
#        112922
#        123697
#        135314
#        145983
#        156932
#        169163
#        181490
#
# Disc length: 2575 seconds
#
# Revision: 0
# Processed by: cddbd v1.5.1PL0 Copyright (c) Steve Scherf et al.
# Submitted via: ExactAudioCopy v0.95a5
#
DISCID=dc0a0d10
DTITLE=Facing South - Live at the Hollonville Opry House February 19, 
DTITLE=2005
DYEAR=2005
DGENRE=Bluegrass
TTITLE0=There's a Bluebird Singin'
TTITLE1=Armadillo Breakdown
TTITLE2=Cowboy's Sweetheart
TTITLE3=Dear Old Dixie
TTITLE4=Greenville Trestle
TTITLE5=Hold What Ya Got
TTITLE6=I Still Miss Someone
TTITLE7=I'll Be No Stranger There
TTITLE8=I'll Go Steppin' Too
TTITLE9=I'll Stay Around
TTITLE10=Last Old Shovel
TTITLE11=Long Gone
TTITLE12=On and On
TTITLE13=Roses in the Snow
TTITLE14=Shoutin' on the Hills
TTITLE15=Somehow Tonight
EXTD=
EXTT0=
EXTT1=
EXTT2=
EXTT3=
EXTT4=
EXTT5=
EXTT6=
EXTT7=
EXTT8=
EXTT9=
EXTT10=
EXTT11=
EXTT12=
EXTT13=
EXTT14=
EXTT15=
PLAYORDER=
